<?xml version="1.0" standalone="no"?>
<!DOCTYPE svg PUBLIC "-//W3C//DTD SVG 20010904//EN"
 "http://www.w3.org/TR/2001/REC-SVG-20010904/DTD/svg10.dtd">
<svg version="1.0" xmlns="http://www.w3.org/2000/svg"
 width="400.000000pt" height="400.000000pt" viewBox="0 0 400.000000 400.000000"
 preserveAspectRatio="xMidYMid meet">
<metadata>
Created by potrace 1.11, written by Peter Selinger 2001-2013
</metadata>
<g transform="translate(0.000000,400.000000) scale(0.100000,-0.100000)"
fill="#000000" stroke="none">
<path d="M330 3871 c-83 -26 -141 -74 -181 -151 l-24 -45 -3 -1640 c-3 -1814
-7 -1697 63 -1787 23 -31 54 -56 92 -75 l58 -28 1655 0 1655 0 45 21 c59 28
117 86 144 143 l21 46 3 1625 c2 1162 0 1640 -8 1677 -22 102 -103 187 -202
211 -54 14 -3275 16 -3318 3z m1019 -855 c7 -9 436 -1272 462 -1362 16 -54 44
-79 108 -99 34 -10 66 -24 72 -31 5 -7 9 -41 7 -76 l-3 -63 -340 0 -340 0 -3
37 c-2 20 1 51 6 70 8 31 14 35 92 60 46 15 87 31 91 35 10 11 -93 298 -116
323 -17 19 -31 20 -240 20 -199 0 -224 -2 -238 -17 -25 -29 -127 -316 -116
-329 5 -6 46 -19 92 -29 45 -9 88 -22 95 -27 18 -15 16 -113 -4 -132 -13 -14
-55 -16 -304 -16 -159 0 -295 3 -304 6 -40 15 -6 162 35 151 10 -3 17 -1 14 3
-7 12 58 32 81 24 14 -4 16 -3 5 4 -11 8 -10 11 6 16 10 3 26 18 35 33 9 16
136 329 283 698 146 369 270 674 275 679 29 29 229 47 249 22z m1334 -761 c8
-8 17 -11 21 -8 3 4 6 -19 6 -50 0 -62 -14 -79 -75 -92 -65 -14 -96 -27 -93
-39 7 -29 284 -506 292 -503 11 4 276 486 276 502 0 6 -35 20 -79 30 -44 10
-84 21 -89 24 -12 8 -22 112 -10 105 4 -3 8 4 8 15 0 21 4 21 285 21 194 0
285 -3 285 -11 0 -5 5 -7 10 -4 6 4 10 -16 10 -54 0 -67 -7 -74 -97 -101 -23
-7 -51 -22 -62 -34 -39 -41 -434 -740 -443 -783 -5 -23 -8 -129 -6 -234 4
-224 0 -217 117 -238 80 -14 91 -25 91 -90 0 -28 -7 -48 -20 -61 -19 -19 -32
-20 -242 -19 -123 1 -268 4 -323 8 l-100 6 -3 58 c-2 37 1 57 8 57 6 0 9 4 5
9 -7 12 61 35 81 27 10 -4 12 -2 8 6 -5 7 2 9 22 5 16 -3 23 -4 16 0 -9 3 -4
11 16 23 l30 18 4 184 c2 100 1 199 -2 219 -8 42 -421 785 -452 812 -11 9 -46
24 -77 33 -31 9 -60 20 -66 26 -11 10 -14 129 -4 122 4 -2 9 3 13 11 8 22 617
23 639 0z"/>
<path d="M1149 2583 c-101 -264 -169 -458 -165 -469 4 -11 38 -14 163 -14 87
0 164 4 172 9 11 7 -2 56 -69 255 -45 135 -84 246 -86 246 -3 0 -9 -12 -15
-27z"/>
<path d="M3080 1970 c-6 -11 -8 -20 -6 -20 3 0 10 9 16 20 6 11 8 20 6 20 -3
0 -10 -9 -16 -20z"/>
<path d="M3016 1853 c-6 -14 -5 -15 5 -6 7 7 10 15 7 18 -3 3 -9 -2 -12 -12z"/>
<path d="M2915 1669 c-4 -6 -5 -12 -2 -15 2 -3 7 2 10 11 7 17 1 20 -8 4z"/>
<path d="M2988 793 c7 -3 16 -2 19 1 4 3 -2 6 -13 5 -11 0 -14 -3 -6 -6z"/>
<path d="M3038 783 c7 -3 16 -2 19 1 4 3 -2 6 -13 5 -11 0 -14 -3 -6 -6z"/>
</g>
</svg>
